<?xml version="1.0" standalone="no"?>
<!DOCTYPE svg PUBLIC "-//W3C//DTD SVG 20010904//EN"
 "http://www.w3.org/TR/2001/REC-SVG-20010904/DTD/svg10.dtd">
<svg version="1.0" xmlns="http://www.w3.org/2000/svg"
 width="512.000000pt" height="512.000000pt" viewBox="0 0 512.000000 512.000000"
 preserveAspectRatio="xMidYMid meet">

<g transform="translate(0.000000,512.000000) scale(0.100000,-0.100000)"
fill="#000000" stroke="none">
<path d="M2404 4900 c-31 -12 -35 -21 -48 -112 l-11 -80 -110 -28 c-699 -176
-1275 -715 -1499 -1400 -79 -242 -108 -435 -105 -698 l2 -174 -100 -136 c-141
-194 -160 -223 -203 -315 -294 -627 44 -1368 710 -1560 322 -93 676 -35 948
156 l64 44 87 -28 c323 -104 758 -118 1106 -37 693 161 1272 673 1520 1343 89
240 129 466 129 735 0 544 -182 1017 -553 1436 l-78 89 32 225 c34 237 33 262
-7 280 -13 5 -426 66 -918 135 -492 68 -906 126 -920 129 -14 2 -35 0 -46 -4z
m627 -215 c294 -41 669 -93 834 -116 165 -23 303 -45 308 -48 5 -6 -30 -299
-37 -308 -2 -3 -1410 196 -1580 222 -55 9 -102 18 -104 20 -6 5 36 305 42 305
1 0 243 -34 537 -75z m-711 -132 c0 -5 -61 -440 -136 -968 l-137 -960 -81 0
c-62 0 -91 -5 -123 -21 l-41 -21 -17 37 c-23 52 -90 115 -150 141 -68 31 -161
31 -230 0 l-51 -22 -43 40 c-75 69 -187 97 -281 71 -68 -19 -128 -67 -193
-155 l-62 -85 -3 76 c-3 87 20 272 49 389 92 369 268 683 529 946 235 236 530
412 845 506 122 36 125 36 125 26z m2035 -740 c395 -517 508 -1220 295 -1838
-23 -65 -47 -130 -55 -144 l-13 -26 1 27 c1 14 5 24 10 21 9 -5 9 11 0 20 -3
4 -16 -2 -28 -13 -16 -15 -22 -17 -22 -6 0 8 3 14 6 13 3 -1 7 1 9 6 1 4 0 6
-1 5 -2 -2 -12 3 -21 11 -15 13 -17 12 -12 -13 4 -23 2 -26 -9 -16 -8 6 -11
18 -8 26 4 10 0 12 -11 8 -15 -6 -15 -9 -1 -33 l16 -26 -23 28 c-13 15 -28 27
-32 27 -5 0 -3 -6 3 -13 8 -10 7 -14 -4 -14 -8 0 -12 4 -10 8 3 3 -3 13 -12
20 -14 12 -15 11 -9 -11 l7 -25 -15 25 c-18 30 -20 40 -5 40 5 0 8 -4 5 -8 -3
-5 9 -7 27 -6 18 1 32 3 32 4 0 1 14 3 32 4 20 2 30 -2 26 -8 -4 -6 0 -5 8 1
12 10 18 10 29 0 10 -10 11 -9 5 3 -7 12 -6 13 6 3 9 -7 20 -8 28 -4 11 7 11
13 -3 32 -10 15 -16 18 -16 9 0 -13 -2 -13 -11 0 -9 13 -10 12 -5 -2 3 -10 1
-20 -4 -23 -9 -5 -14 6 -12 26 0 3 -10 5 -23 5 -19 0 -22 -3 -13 -13 6 -8 8
-16 5 -19 -3 -3 -13 6 -22 20 -10 15 -22 23 -29 19 -6 -4 -47 -8 -91 -8 -73 0
-80 -2 -77 -20 3 -16 2 -17 -12 -6 -15 13 -15 16 1 35 13 15 14 17 2 8 -9 -6
-19 -8 -23 -4 -4 4 -7 3 -6 -3 5 -22 -1 -29 -11 -15 -9 13 -10 12 -5 -2 3 -10
1 -18 -4 -18 -6 0 -10 -4 -10 -9 0 -6 9 -8 20 -6 14 3 18 0 14 -8 -5 -9 -3 -9
6 0 9 9 17 9 26 2 8 -7 14 -7 19 1 12 19 22 10 22 -21 0 -29 -1 -29 -12 -10
-6 12 -14 19 -18 15 -4 -4 -1 -14 5 -23 7 -9 8 -13 4 -9 -5 4 -15 3 -22 -3 -8
-7 -14 -7 -19 1 -3 6 -11 8 -16 4 -5 -3 -8 -2 -7 3 2 4 -1 9 -7 9 -5 1 -9 -1
-8 -5 1 -4 -4 -8 -12 -8 -8 0 -13 3 -12 6 1 3 -2 6 -8 6 -5 0 -9 -3 -8 -6 1
-3 -5 -6 -13 -6 -7 0 -12 3 -9 5 3 3 0 11 -6 18 -13 16 -40 7 -33 -11 7 -16
-12 -29 -21 -15 -4 6 -11 8 -16 4 -5 -3 -9 -2 -8 3 3 20 -2 34 -11 28 -5 -3
-6 -13 -3 -23 4 -10 -2 -7 -15 8 -12 14 -21 20 -22 14 0 -5 5 -15 10 -22 6 -6
7 -10 4 -7 -4 3 -14 -1 -23 -7 -13 -10 -14 -10 -4 1 13 15 6 44 -8 35 -5 -3
-6 -10 -3 -16 5 -7 2 -8 -6 -3 -10 6 -12 3 -7 -11 7 -19 7 -19 -8 0 -8 10 -12
23 -9 27 6 11 1 11 -20 3 -10 -4 -16 -19 -17 -38 0 -17 -3 -26 -5 -19 -3 6 18
180 46 385 90 654 230 1662 236 1698 l6 35 29 -35 c16 -19 54 -67 84 -107z
m-1148 -54 c89 -12 167 -25 173 -29 8 -5 6 -42 -8 -139 -10 -72 -16 -131 -13
-131 3 0 57 29 120 65 62 36 115 65 116 65 11 0 176 -313 169 -320 -7 -7 -221
-129 -329 -187 -17 -10 -6 -25 125 -157 l144 -147 -127 -127 -127 -127 -99 99
c-113 112 -102 117 -122 -51 -6 -56 -15 -107 -19 -113 -5 -9 -25 -10 -67 -5
-85 9 -86 12 -62 75 57 150 -19 328 -170 399 -47 22 -69 26 -136 25 -90 -1
-127 -14 -200 -70 -52 -39 -49 -40 -86 30 -11 21 -17 42 -12 46 4 4 82 49 173
100 91 51 166 93 167 94 0 0 -61 66 -138 146 -76 80 -139 147 -139 150 0 3 56
62 125 130 l126 124 98 -98 c113 -113 100 -117 121 39 15 107 20 135 28 135 4
0 80 -9 169 -21z m-360 -950 c34 -13 80 -55 99 -91 18 -35 18 -125 0 -160 -8
-14 -238 -334 -512 -710 -274 -375 -504 -695 -511 -709 -26 -51 15 -96 78 -87
16 2 59 54 153 182 l131 179 7 -49 c10 -66 -8 -192 -38 -273 -54 -143 -194
-320 -330 -417 -86 -61 -234 -129 -340 -156 -123 -32 -361 -32 -475 0 -361 98
-623 360 -720 722 -34 124 -34 357 -1 480 45 166 95 251 360 614 136 187 260
349 275 360 21 16 43 21 87 21 64 0 103 -20 129 -67 13 -22 11 -28 -22 -79
-43 -62 -45 -84 -15 -116 43 -46 74 -30 153 77 59 79 79 97 128 110 79 22 163
-26 188 -108 16 -56 3 -99 -57 -182 -68 -93 -74 -107 -62 -141 10 -30 38 -43
79 -37 16 2 52 43 121 138 113 155 151 185 227 177 83 -9 136 -70 136 -155 0
-57 -1 -59 -102 -199 -109 -149 -119 -177 -83 -213 25 -25 61 -26 88 -2 15 13
421 565 592 805 61 85 152 118 237 86z m1050 -261 c-3 -8 -6 -5 -6 6 -1 11 2
17 5 13 3 -3 4 -12 1 -19z m-40 -300 c-3 -8 -6 -5 -6 6 -1 11 2 17 5 13 3 -3
4 -12 1 -19z m643 -312 c10 -14 11 -17 2 -12 -7 4 -18 3 -25 -3 -13 -10 -42
-10 -53 2 -4 4 -13 7 -21 7 -14 0 -14 -34 0 -57 4 -6 3 -15 -3 -18 -6 -4 -9
-3 -8 2 2 4 -1 9 -7 9 -5 1 -9 -2 -7 -8 1 -5 -2 -7 -8 -3 -6 3 -8 10 -5 15 3
5 1 11 -4 14 -5 3 -7 15 -4 26 6 21 -15 28 -33 10 -6 -6 -10 -4 -10 8 0 16 10
18 79 17 43 -1 81 3 84 8 3 4 6 7 7 5 1 -2 8 -12 16 -22z m48 -11 c-3 -3 -9 2
-12 12 -6 14 -5 15 5 6 7 -7 10 -15 7 -18z m-1358 -60 c217 -30 437 -60 487
-66 51 -7 98 -16 104 -20 9 -5 4 -68 -21 -251 -18 -133 -36 -247 -40 -251 -5
-6 -833 104 -1227 164 l-72 11 -15 51 c-8 28 -12 55 -9 61 6 10 102 142 234
322 l37 51 64 -8 c34 -5 241 -33 458 -64z m1094 67 c3 -5 -1 -9 -9 -9 -8 0
-12 4 -9 9 3 4 7 8 9 8 2 0 6 -4 9 -8z m320 -13 c-3 -5 -10 -7 -15 -3 -5 3 -7
10 -3 15 3 5 10 7 15 3 5 -3 7 -10 3 -15z m-657 -136 c-3 -10 -5 -4 -5 12 0
17 2 24 5 18 2 -7 2 -21 0 -30z"/>
<path d="M3091 4561 c-26 -26 -27 -53 -3 -74 17 -16 333 -67 413 -67 43 0 65
25 55 65 -8 31 -37 39 -231 65 -88 11 -172 23 -187 26 -19 4 -33 -1 -47 -15z"/>
<path d="M4610 1996 c0 -2 8 -10 18 -17 15 -13 16 -12 3 4 -13 16 -21 21 -21
13z"/>
<path d="M3996 1961 c-4 -6 -11 -9 -15 -7 -4 3 -7 -10 -8 -27 -1 -30 -1 -30 7
-7 4 14 9 22 10 18 1 -5 4 -12 5 -18 1 -5 4 -13 5 -17 1 -5 2 -12 1 -17 -1 -5
5 -3 14 4 21 17 43 21 51 9 3 -5 10 -7 15 -3 5 3 7 10 4 15 -4 5 -2 9 4 9 5 0
12 -9 16 -19 3 -11 13 -25 22 -33 15 -11 16 -11 10 4 -9 25 26 43 43 23 9 -11
16 -12 25 -5 9 8 15 8 20 0 5 -8 11 -8 19 -1 9 8 18 5 31 -9 26 -29 36 -19 26
29 -1 2 -7 -2 -14 -8 -8 -6 -17 -7 -21 -3 -4 4 -13 7 -19 7 -7 0 -11 13 -10
30 l1 30 -14 -30 c-14 -28 -15 -28 -11 -5 3 25 3 25 -69 25 -40 0 -70 -3 -68
-6 2 -4 -4 -13 -13 -20 -14 -12 -15 -11 -9 8 7 23 -8 41 -20 22 -4 -8 -3 -9 4
-5 14 9 15 -4 2 -24 -5 -8 -10 -10 -10 -4 0 20 -27 48 -34 35z m27 -54 c-2 -4
-9 -5 -14 -1 -5 3 -7 9 -4 14 3 5 1 11 -5 15 -6 4 -7 11 -4 17 4 6 12 1 20
-13 7 -13 10 -27 7 -32z m180 15 c6 -31 -8 -37 -27 -11 -10 15 -21 20 -35 16
-12 -3 -21 0 -21 6 0 6 -3 8 -6 4 -3 -3 -1 -14 5 -24 6 -10 11 -12 11 -5 0 6
8 12 17 12 15 0 14 -2 -3 -14 -17 -13 -21 -13 -35 6 -16 21 -46 17 -33 -4 5
-7 2 -8 -5 -4 -9 6 -9 12 3 25 10 11 31 16 70 16 49 0 55 -2 59 -23z"/>
<path d="M4180 1920 c6 -11 13 -20 16 -20 2 0 0 9 -6 20 -6 11 -13 20 -16 20
-2 0 0 -9 6 -20z"/>
<path d="M4610 1961 c0 -6 4 -13 10 -16 6 -3 7 1 4 9 -7 18 -14 21 -14 7z"/>
<path d="M4475 1900 c-3 -6 1 -7 9 -4 18 7 21 14 7 14 -6 0 -13 -4 -16 -10z"/>
<path d="M4545 1900 c-4 -6 -3 -10 2 -9 4 1 10 1 13 -1 21 -8 50 -8 50 -1 0 5
-8 8 -17 6 -10 -1 -23 2 -30 7 -7 6 -14 5 -18 -2z"/>
<path d="M4368 1917 c-3 -15 -2 -30 3 -32 12 -8 16 8 9 35 l-6 25 -6 -28z"/>
<path d="M4460 1930 c-9 -6 -10 -10 -3 -10 6 0 15 5 18 10 8 12 4 12 -15 0z"/>
<path d="M2877 1800 c-109 -60 -126 -216 -32 -299 30 -26 89 -51 120 -51 60 0
148 60 171 117 31 74 4 169 -61 219 -50 38 -141 44 -198 14z m143 -110 c30
-30 27 -83 -6 -109 -35 -28 -69 -26 -99 4 -31 30 -32 71 -3 102 27 29 80 31
108 3z"/>
</g>
</svg>
